<?xml version="1.0" encoding="UTF-8" standalone="no"?>
<!DOCTYPE svg PUBLIC "-//W3C//DTD SVG 1.1//EN"
 "http://www.w3.org/Graphics/SVG/1.1/DTD/svg11.dtd">
<!-- Generated by graphviz version 2.47.2 (20210527.0053)
 -->
<!-- Title: G Pages: 1 -->
<svg width="476pt" height="92pt"
 viewBox="0.00 0.00 476.00 92.00" xmlns="http://www.w3.org/2000/svg" xmlns:xlink="http://www.w3.org/1999/xlink">
<g id="graph0" class="graph" transform="scale(1 1) rotate(0) translate(4 88)">
<title>G</title>
<polygon fill="white" stroke="transparent" points="-4,4 -4,-88 472,-88 472,4 -4,4"/>
<!-- node0 -->
<g id="node1" class="node">
<title>node0</title>
<polygon fill="none" stroke="black" points="124,-60.5 124,-83.5 230,-83.5 230,-60.5 124,-60.5"/>
<text text-anchor="middle" x="134" y="-68.3" font-family="Times New Roman,serif" font-size="14.00"> </text>
<polyline fill="none" stroke="black" points="144,-60.5 144,-83.5 "/>
<text text-anchor="middle" x="155.5" y="-68.3" font-family="Times New Roman,serif" font-size="14.00">6</text>
<polyline fill="none" stroke="black" points="167,-60.5 167,-83.5 "/>
<text text-anchor="middle" x="177" y="-68.3" font-family="Times New Roman,serif" font-size="14.00"> </text>
<polyline fill="none" stroke="black" points="187,-60.5 187,-83.5 "/>
<text text-anchor="middle" x="198.5" y="-68.3" font-family="Times New Roman,serif" font-size="14.00">9</text>
<polyline fill="none" stroke="black" points="210,-60.5 210,-83.5 "/>
<text text-anchor="middle" x="220" y="-68.3" font-family="Times New Roman,serif" font-size="14.00"> </text>
</g>
<!-- node1 -->
<g id="node2" class="node">
<title>node1</title>
<polygon fill="none" stroke="black" points="0,-0.5 0,-23.5 106,-23.5 106,-0.5 0,-0.5"/>
<text text-anchor="middle" x="10" y="-8.3" font-family="Times New Roman,serif" font-size="14.00"> </text>
<polyline fill="none" stroke="black" points="20,-0.5 20,-23.5 "/>
<text text-anchor="middle" x="31.5" y="-8.3" font-family="Times New Roman,serif" font-size="14.00">2</text>
<polyline fill="none" stroke="black" points="43,-0.5 43,-23.5 "/>
<text text-anchor="middle" x="53" y="-8.3" font-family="Times New Roman,serif" font-size="14.00"> </text>
<polyline fill="none" stroke="black" points="63,-0.5 63,-23.5 "/>
<text text-anchor="middle" x="74.5" y="-8.3" font-family="Times New Roman,serif" font-size="14.00">3</text>
<polyline fill="none" stroke="black" points="86,-0.5 86,-23.5 "/>
<text text-anchor="middle" x="96" y="-8.3" font-family="Times New Roman,serif" font-size="14.00"> </text>
</g>
<!-- node0&#45;&gt;node1 -->
<g id="edge1" class="edge">
<title>node0:r0&#45;&gt;node1</title>
<path fill="none" stroke="black" d="M123,-72C97.69,-72 76.78,-49.17 64.59,-31.91"/>
<polygon fill="black" stroke="black" points="67.49,-29.94 59.04,-23.55 61.65,-33.81 67.49,-29.94"/>
</g>
<!-- node2 -->
<g id="node3" class="node">
<title>node2</title>
<polygon fill="none" stroke="black" points="124,-0.5 124,-23.5 230,-23.5 230,-0.5 124,-0.5"/>
<text text-anchor="middle" x="134" y="-8.3" font-family="Times New Roman,serif" font-size="14.00"> </text>
<polyline fill="none" stroke="black" points="144,-0.5 144,-23.5 "/>
<text text-anchor="middle" x="155.5" y="-8.3" font-family="Times New Roman,serif" font-size="14.00">7</text>
<polyline fill="none" stroke="black" points="167,-0.5 167,-23.5 "/>
<text text-anchor="middle" x="177" y="-8.3" font-family="Times New Roman,serif" font-size="14.00"> </text>
<polyline fill="none" stroke="black" points="187,-0.5 187,-23.5 "/>
<text text-anchor="middle" x="198.5" y="-8.3" font-family="Times New Roman,serif" font-size="14.00">8</text>
<polyline fill="none" stroke="black" points="210,-0.5 210,-23.5 "/>
<text text-anchor="middle" x="220" y="-8.3" font-family="Times New Roman,serif" font-size="14.00"> </text>
</g>
<!-- node0&#45;&gt;node2 -->
<g id="edge2" class="edge">
<title>node0:r1&#45;&gt;node2</title>
<path fill="none" stroke="black" d="M177,-60C177,-51.47 177,-42.08 177,-33.94"/>
<polygon fill="black" stroke="black" points="180.5,-33.83 177,-23.83 173.5,-33.83 180.5,-33.83"/>
</g>
<!-- node3 -->
<g id="node4" class="node">
<title>node3</title>
<polygon fill="none" stroke="black" points="248,-0.5 248,-23.5 468,-23.5 468,-0.5 248,-0.5"/>
<text text-anchor="middle" x="258" y="-8.3" font-family="Times New Roman,serif" font-size="14.00"> </text>
<polyline fill="none" stroke="black" points="268,-0.5 268,-23.5 "/>
<text text-anchor="middle" x="283" y="-8.3" font-family="Times New Roman,serif" font-size="14.00">14</text>
<polyline fill="none" stroke="black" points="298,-0.5 298,-23.5 "/>
<text text-anchor="middle" x="308" y="-8.3" font-family="Times New Roman,serif" font-size="14.00"> </text>
<polyline fill="none" stroke="black" points="318,-0.5 318,-23.5 "/>
<text text-anchor="middle" x="333" y="-8.3" font-family="Times New Roman,serif" font-size="14.00">17</text>
<polyline fill="none" stroke="black" points="348,-0.5 348,-23.5 "/>
<text text-anchor="middle" x="358" y="-8.3" font-family="Times New Roman,serif" font-size="14.00"> </text>
<polyline fill="none" stroke="black" points="368,-0.5 368,-23.5 "/>
<text text-anchor="middle" x="383" y="-8.3" font-family="Times New Roman,serif" font-size="14.00">19</text>
<polyline fill="none" stroke="black" points="398,-0.5 398,-23.5 "/>
<text text-anchor="middle" x="408" y="-8.3" font-family="Times New Roman,serif" font-size="14.00"> </text>
<polyline fill="none" stroke="black" points="418,-0.5 418,-23.5 "/>
<text text-anchor="middle" x="433" y="-8.3" font-family="Times New Roman,serif" font-size="14.00">22</text>
<polyline fill="none" stroke="black" points="448,-0.5 448,-23.5 "/>
<text text-anchor="middle" x="458" y="-8.3" font-family="Times New Roman,serif" font-size="14.00"> </text>
</g>
<!-- node0&#45;&gt;node3 -->
<g id="edge3" class="edge">
<title>node0:r2&#45;&gt;node3</title>
<path fill="none" stroke="black" d="M231,-72C271.49,-72 313.05,-47.03 337.15,-29.58"/>
<polygon fill="black" stroke="black" points="339.29,-32.34 345.2,-23.55 335.1,-26.74 339.29,-32.34"/>
</g>
</g>
</svg>
